<svg width="72" height="58" viewBox="0 0 72 58" version="1.1" xmlns="http://www.w3.org/2000/svg" xmlns:xlink="http://www.w3.org/1999/xlink">
<title>Group 2</title>
<desc>Created using Figma</desc>
<g id="Canvas" transform="translate(-2322 368)">
<g id="Group 2">
<g id="letter-message-communication-3a5120cf4f779aa5">
<g id="Page 1">
<g id="Icons">
<g id="25  Letter  (Yellow)">
<g id="Fill 180">
<use xlink:href="#path0_fill" transform="matrix(0.965926 -0.258819 0.258819 0.965926 2323.33 -351.485)" fill="#FFFFFF"/>
</g>
<g id="Fill 181">
<use xlink:href="#path1_fill" transform="matrix(0.965926 -0.258819 0.258819 0.965926 2380.13 -363.599)" fill="#FFA800"/>
</g>
<g id="Fill 182">
<use xlink:href="#path2_fill" transform="matrix(0.965926 -0.258819 0.258819 0.965926 2327.97 -349.623)" fill="#FFF07D"/>
</g>
<g id="Fill 183">
<use xlink:href="#path3_fill" transform="matrix(0.965926 -0.258819 0.258819 0.965926 2366.67 -355.853)" fill="#00DA6C"/>
</g>
<g id="Fill 184">
<use xlink:href="#path4_fill" transform="matrix(0.965926 -0.258819 0.258819 0.965926 2371.5 -357.147)" fill="#00AD55"/>
</g>
<g id="Fill 185">
<use xlink:href="#path5_fill" transform="matrix(0.965926 -0.258819 0.258819 0.965926 2356.01 -334.36)" fill="#00AD55"/>
</g>
<g id="Fill 186">
<use xlink:href="#path6_fill" transform="matrix(0.965926 -0.258819 0.258819 0.965926 2352.02 -333.288)" fill="#00DA6C"/>
</g>
<g id="Stroke 937">
<use xlink:href="#path7_stroke" transform="matrix(0.965926 -0.258819 0.258819 0.965926 2323.33 -351.485)"/>
</g>
<g id="Stroke 938">
<use xlink:href="#path8_stroke" transform="matrix(0.965926 -0.258819 0.258819 0.965926 2326.43 -339.893)"/>
</g>
<g id="Fill 939">
<use xlink:href="#path9_fill" transform="matrix(0.965926 -0.258819 0.258819 0.965926 2386.67 -335.327)"/>
</g>
<g id="Fill 940">
<use xlink:href="#path10_fill" transform="matrix(0.965926 -0.258819 0.258819 0.965926 2324.17 -344.464)"/>
</g>
<g id="Stroke 941">
<use xlink:href="#path11_stroke" transform="matrix(0.965926 -0.258819 0.258819 0.965926 2366.67 -355.853)"/>
</g>
<g id="Stroke 942">
<use xlink:href="#path12_stroke" transform="matrix(0.965926 -0.258819 0.258819 0.965926 2332.94 -342.67)"/>
</g>
<g id="Stroke 943">
<use xlink:href="#path12_stroke" transform="matrix(0.965926 -0.258819 0.258819 0.965926 2334.23 -337.841)"/>
</g>
<g id="Stroke 944">
<use xlink:href="#path13_stroke" transform="matrix(0.965926 -0.258819 0.258819 0.965926 2331.64 -347.5)"/>
</g>
<g id="Stroke 1340">
<use xlink:href="#path14_stroke" transform="matrix(0.965926 -0.258819 0.258819 0.965926 2352.01 -333.29)"/>
</g>
<g id="Stroke 1341">
<use xlink:href="#path15_stroke" transform="matrix(0.965926 -0.258819 0.258819 0.965926 2364.83 -335.688)"/>
</g>
<g id="Stroke 1342">
<use xlink:href="#path16_stroke" transform="matrix(0.965926 -0.258819 0.258819 0.965926 2368.95 -335.757)"/>
</g>
<g id="Stroke 1343">
<use xlink:href="#path15_stroke" transform="matrix(0.965926 -0.258819 0.258819 0.965926 2372.56 -337.758)"/>
</g>
<g id="Stroke 1344">
<use xlink:href="#path16_stroke" transform="matrix(0.965926 -0.258819 0.258819 0.965926 2376.68 -337.827)"/>
</g>
<g id="Stroke 1345">
<use xlink:href="#path15_stroke" transform="matrix(0.965926 -0.258819 0.258819 0.965926 2366.38 -329.892)"/>
</g>
<g id="Stroke 1346">
<use xlink:href="#path16_stroke" transform="matrix(0.965926 -0.258819 0.258819 0.965926 2370.51 -329.961)"/>
</g>
<g id="Stroke 1347">
<use xlink:href="#path15_stroke" transform="matrix(0.965926 -0.258819 0.258819 0.965926 2374.11 -331.963)"/>
</g>
<g id="Stroke 1348">
<use xlink:href="#path16_stroke" transform="matrix(0.965926 -0.258819 0.258819 0.965926 2378.23 -332.032)"/>
</g>
</g>
</g>
</g>
</g>
</g>
</g>
<defs>
<path id="path0_fill" fill-rule="evenodd" d="M 0 41L 3.116 41L 3.116 1.28746e-08L 0 1.28746e-08L 0 41Z"/>
<path id="path1_fill" fill-rule="evenodd" d="M 0 41L 3 41L 3 1.28746e-08L 0 1.28746e-08L 0 41Z"/>
<path id="path2_fill" fill-rule="evenodd" d="M 0 0.0019999L 0 41L 55 41L 55 2.5748e-08L 0 0.0019999Z"/>
<path id="path3_fill" fill-rule="evenodd" d="M 0 8L 5 8L 5 7.24792e-08L 0 7.24792e-08L 0 8Z"/>
<path id="path4_fill" fill-rule="evenodd" d="M 0 8L 3 8L 3 7.24792e-08L 0 7.24792e-08L 0 8Z"/>
<path id="path5_fill" fill-rule="evenodd" d="M 5.86118 5C 5.86118 6.32608 5.3344 7.59785 4.39672 8.53553C 3.45904 9.47322 2.18727 10 0.861183 10C -1.89982 10 2.86118 10.311 2.86118 5C 2.86118 0 -1.89982 0 0.861183 0C 2.18727 0 3.45904 0.526784 4.39672 1.46447C 5.3344 2.40215 5.86118 3.67392 5.86118 5Z"/>
<path id="path6_fill" fill-rule="evenodd" d="M 7 5C 7 7.76 5.433 10 3.5 10C 1.567 10 0 7.76 0 5C 0 2.238 1.567 0 3.5 0C 5.433 0 7 2.238 7 5Z"/>
<path id="path7_stroke" d="M 57 29C 57 29.5523 57.4477 30 58 30C 58.5523 30 59 29.5523 59 29L 57 29ZM 58 1.28746e-08L 59 1.28746e-08L 59 -1L 58 -1L 58 1.28746e-08ZM 0 1.28746e-08L 0 -1L -1 -1L -1 1.28746e-08L 0 1.28746e-08ZM -1 4C -1 4.55228 -0.552285 5 0 5C 0.552285 5 1 4.55228 1 4L -1 4ZM 59 29L 59 1.28746e-08L 57 1.28746e-08L 57 29L 59 29ZM 58 -1L 0 -1L 0 1L 58 1L 58 -1ZM -1 1.28746e-08L -1 4L 1 4L 1 1.28746e-08L -1 1.28746e-08Z"/>
<path id="path8_stroke" d="M 1 0C 1 -0.552285 0.552285 -1 0 -1C -0.552285 -1 -1 -0.552285 -1 0L 1 0ZM 0 29L -1 29L -1 30L 0 30L 0 29ZM 58 29L 58 30L 59 30L 59 29L 58 29ZM 59 25C 59 24.4477 58.5523 24 58 24C 57.4477 24 57 24.4477 57 25L 59 25ZM -1 0L -1 29L 1 29L 1 0L -1 0ZM 0 30L 58 30L 58 28L 0 28L 0 30ZM 59 29L 59 25L 57 25L 57 29L 59 29Z"/>
<path id="path9_fill" fill-rule="evenodd" d="M 2 1C 2 0.734784 1.89464 0.480429 1.70711 0.292892C 1.51957 0.105356 1.26522 0 1 0C 0.734784 0 0.480429 0.105356 0.292892 0.292892C 0.105356 0.480429 0 0.734784 0 1C 0 1.26522 0.105356 1.51957 0.292892 1.70711C 0.480429 1.89464 0.734784 2 1 2C 1.26522 2 1.51957 1.89464 1.70711 1.70711C 1.89464 1.51957 2 1.26522 2 1Z"/>
<path id="path10_fill" fill-rule="evenodd" d="M 2 1C 2 0.734784 1.89464 0.48043 1.70711 0.292893C 1.51957 0.105357 1.26522 -8.88178e-16 1 0C 0.734784 -8.88178e-16 0.48043 0.105357 0.292893 0.292893C 0.105357 0.48043 2.70617e-16 0.734784 0 1C 3.40006e-16 1.26522 0.105357 1.51957 0.292893 1.70711C 0.48043 1.89464 0.734784 2 1 2C 1.26522 2 1.51957 1.89464 1.70711 1.70711C 1.89464 1.51957 2 1.26522 2 1Z"/>
<path id="path11_stroke" d="M 0 8L -1 8L -1 9L 0 9L 0 8ZM 8 8L 8 9L 9 9L 9 8L 8 8ZM 8 7.24792e-08L 9 7.24792e-08L 9 -1L 8 -1L 8 7.24792e-08ZM 0 7.24792e-08L 0 -1L -1 -1L -1 7.24792e-08L 0 7.24792e-08ZM 0 9L 8 9L 8 7L 0 7L 0 9ZM 9 8L 9 7.24792e-08L 7 7.24792e-08L 7 8L 9 8ZM 8 -1L 0 -1L 0 1L 8 1L 8 -1ZM -1 7.24792e-08L -1 8L 1 8L 1 7.24792e-08L -1 7.24792e-08Z"/>
<path id="path12_stroke" d="M 0 -1C -0.552285 -1 -1 -0.552285 -1 0C -1 0.552285 -0.552285 1 0 1L 0 -1ZM 20 1C 20.5523 1 21 0.552285 21 0C 21 -0.552285 20.5523 -1 20 -1L 20 1ZM 0 1L 20 1L 20 -1L 0 -1L 0 1Z"/>
<path id="path13_stroke" d="M 8 1C 8.55228 1 9 0.552285 9 0C 9 -0.552285 8.55228 -1 8 -1L 8 1ZM 0 -1C -0.552285 -1 -1 -0.552285 -1 0C -1 0.552285 -0.552285 1 0 1L 0 -1ZM 8 -1L 0 -1L 0 1L 8 1L 8 -1Z"/>
<path id="path14_stroke" d="M 10.001 5.0015L 11.001 5.0017L 10.001 5.0015ZM 6.49451e-07 4.9995L 1 4.9997L 6.49451e-07 4.9995ZM 1.46532 1.46391L 0.758354 0.756658L 0.758354 0.756658L 1.46532 1.46391ZM 5.0015 9.24109e-07L 5.0013 1L 5.0015 9.24109e-07ZM 9.001 5.0013C 9.00079 6.0623 8.5791 7.07976 7.82871 7.82985L 9.24265 9.24434C 10.3682 8.11926 11.0007 6.59313 11.001 5.0017L 9.001 5.0013ZM 7.82871 7.82985C 7.07832 8.57994 6.0607 9.00121 4.9997 9.001L 4.9993 11.001C 6.59073 11.0013 8.11711 10.3694 9.24265 9.24434L 7.82871 7.82985ZM 4.9997 9.001C 3.9387 9.00079 2.92124 8.5791 2.17115 7.82871L 0.756658 9.24265C 1.88174 10.3682 3.40787 11.0007 4.9993 11.001L 4.9997 9.001ZM 2.17115 7.82871C 1.42106 7.07833 0.999788 6.0607 1 4.9997L -0.999999 4.9993C -1.00032 6.59073 -0.368429 8.11711 0.756658 9.24265L 2.17115 7.82871ZM 1 4.9997C 1.00011 4.47435 1.10369 3.95416 1.30483 3.46884L -0.542779 2.7031C -0.844478 3.43105 -0.999842 4.2113 -0.999999 4.9993L 1 4.9997ZM 1.30483 3.46884C 1.50597 2.98351 1.80073 2.54256 2.17228 2.17115L 0.758354 0.756658C 0.201044 1.31374 -0.24108 1.97515 -0.542779 2.7031L 1.30483 3.46884ZM 2.17228 2.17115C 2.92267 1.42107 3.9403 0.999789 5.0013 1L 5.0017 -0.999999C 3.41027 -1.00032 1.88389 -0.368429 0.758354 0.756658L 2.17228 2.17115ZM 5.0013 1C 5.52665 1.00011 6.04684 1.10369 6.53216 1.30483L 7.2979 -0.542781C 6.56994 -0.84448 5.78969 -0.999841 5.0017 -0.999999L 5.0013 1ZM 6.53216 1.30483C 7.01749 1.50597 7.45844 1.80073 7.82985 2.17229L 9.24434 0.758354C 8.68726 0.201045 8.02585 -0.241082 7.2979 -0.542781L 6.53216 1.30483ZM 7.82985 2.17229C 8.20125 2.54384 8.49584 2.98491 8.69679 3.47031L 10.5447 2.70532C 10.2433 1.97724 9.80143 1.31566 9.24434 0.758354L 7.82985 2.17229ZM 8.69679 3.47031C 8.89773 3.95572 9.00111 4.47595 9.001 5.0013L 11.001 5.0017C 11.0012 4.2137 10.8461 3.43339 10.5447 2.70532L 8.69679 3.47031Z"/>
<path id="path15_stroke" d="M -0.770111 0.36259C -1.12242 0.78791 -1.06323 1.4183 -0.63791 1.77061C -0.21259 2.12292 0.417803 2.06373 0.770111 1.63841L -0.770111 0.36259ZM 3.22989 1.63841C 3.5822 2.06373 4.21259 2.12292 4.63791 1.77061C 5.06323 1.4183 5.12242 0.78791 4.77011 0.36259L 3.22989 1.63841ZM 0.770111 1.63841C 1.14785 1.18239 1.59712 1 2 1C 2.40288 1 2.85215 1.18239 3.22989 1.63841L 4.77011 0.36259C 4.04285 -0.515392 3.04462 -1 2 -1C 0.955378 -1 -0.0428468 -0.515392 -0.770111 0.36259L 0.770111 1.63841Z"/>
<path id="path16_stroke" d="M 4.76964 0.638478C 5.12226 0.213417 5.06354 -0.417019 4.63848 -0.76964C 4.21342 -1.12226 3.58298 -1.06354 3.23036 -0.638478L 4.76964 0.638478ZM 0.76964 -0.638478C 0.417019 -1.06354 -0.213417 -1.12226 -0.638478 -0.76964C -1.06354 -0.417019 -1.12226 0.213417 -0.76964 0.638478L 0.76964 -0.638478ZM 3.23036 -0.638478C 2.85283 -0.183397 2.40346 -0.000999987 2 -0.000999987C 1.59654 -0.000999987 1.14717 -0.183397 0.76964 -0.638478L -0.76964 0.638478C -0.0421657 1.5154 0.955959 1.999 2 1.999C 3.04404 1.999 4.04217 1.5154 4.76964 0.638478L 3.23036 -0.638478Z"/>
</defs>
</svg>
